<svg preserveAspectRatio="none" overflow="visible" style="display: block;" width="32" height="32" viewBox="0 0 32 32" fill="none" xmlns="http://www.w3.org/2000/svg">
<g id="oui:nav-judgements">
<path id="Vector" d="M29.946 16.734L25.872 6.554C25.8058 6.38545 25.6815 6.24609 25.5217 6.16102C25.3618 6.07595 25.1768 6.05077 25 6.09L16.764 7.92V4.8C16.764 4.59737 16.6835 4.40305 16.5402 4.25977C16.397 4.11649 16.2026 4.036 16 4.036C15.7974 4.036 15.603 4.11649 15.4598 4.25977C15.3165 4.40305 15.236 4.59737 15.236 4.8V8.26L6.67 10.17C6.549 10.1967 6.43637 10.2525 6.3419 10.3327C6.24743 10.4129 6.174 10.515 6.128 10.63L2.054 20.814C2.01984 20.9021 2.00156 20.9955 2 21.09C2 23.872 4.966 24.91 6.836 24.91C8.706 24.91 11.672 23.872 11.672 21.09C11.6714 20.9928 11.6531 20.8966 11.618 20.806L7.878 11.46L15.238 9.824V26.436H12.944C12.7414 26.436 12.547 26.5165 12.4038 26.6598C12.2605 26.803 12.18 26.9974 12.18 27.2C12.18 27.4026 12.2605 27.597 12.4038 27.7402C12.547 27.8835 12.7414 27.964 12.944 27.964H19.052C19.2546 27.964 19.449 27.8835 19.5922 27.7402C19.7355 27.597 19.816 27.4026 19.816 27.2C19.816 26.9974 19.7355 26.803 19.5922 26.6598C19.449 26.5165 19.2546 26.436 19.052 26.436H16.764V9.484L23.918 7.896L20.382 16.736C20.3471 16.826 20.3288 16.9215 20.328 17.018C20.328 19.8 23.294 20.838 25.164 20.838C27.034 20.838 30 19.8 30 17.016C29.9994 16.9188 29.9811 16.8246 29.946 16.734ZM6.836 23.382C6.05809 23.3757 5.29391 23.1764 4.612 22.802C3.928 22.402 3.574 21.888 3.532 21.226L6.84 12.966L10.15 21.226C10.026 22.98 7.674 23.382 6.836 23.382ZM25.164 19.308C24.3854 19.302 23.6205 19.1027 22.938 18.728C22.256 18.33 21.902 17.814 21.858 17.154L25.168 8.894L28.476 17.154C28.354 18.908 26.002 19.308 25.164 19.308Z" fill="#5B78FB"/>
</g>
</svg>
